{
    "accessors" : [
        {
            "bufferView" : 0,
            "componentType" : 5123,
            "count" : 2280,
            "max" : [
                438
            ],
            "min" : [
                0
            ],
            "type" : "SCALAR"
        },
        {
            "bufferView" : 1,
            "componentType" : 5126,
            "count" : 439,
            "max" : [
                1.0,
                1.0000001192092896,
                1.0
            ],
            "min" : [
                -1.000000238418579,
                -1.0000004768371582,
                -1.0
            ],
            "type" : "VEC3"
        },
        {
            "bufferView" : 2,
            "componentType" : 5126,
            "count" : 439,
            "max" : [
                1.0,
                1.0,
                1.0
            ],
            "min" : [
                -1.0,
                -1.0,
                -1.0
            ],
            "type" : "VEC3"
        },
        {
            "bufferView" : 3,
            "componentType" : 5126,
            "count" : 439,
            "max" : [
                1.0,
                1.0,
                0.07869105041027069,
                1.0
            ],
            "min" : [
                -1.0,
                -1.0,
                -0.07869068533182144,
                1.0
            ],
            "type" : "VEC4"
        },
        {
            "bufferView" : 4,
            "componentType" : 5126,
            "count" : 439,
            "max" : [
                1.0000001192092896,
                1.0
            ],
            "min" : [
                0.0,
                0.0
            ],
            "type" : "VEC2"
        },
        {
            "bufferView" : 5,
            "componentType" : 5126,
            "count" : 439,
            "max" : [
                0.42785459756851196,
                0.42785465717315674,
                0.09957271814346313
            ],
            "min" : [
                -0.42785459756851196,
                -0.42785465717315674,
                -0.09957271814346313
            ],
            "type" : "VEC3"
        },
        {
            "bufferView" : 6,
            "componentType" : 5126,
            "count" : 439,
            "max" : [
                0.10122925043106079,
                0.10122919082641602,
                0.6794470548629761
            ],
            "min" : [
                -0.10122919082641602,
                -0.10122919082641602,
                -0.6177076101303101
            ],
            "type" : "VEC3"
        },
        {
            "bufferView" : 7,
            "componentType" : 5126,
            "count" : 439,
            "max" : [
                1.0,
                1.0,
                0.9982990026473999
            ],
            "min" : [
                -1.0,
                -1.0,
                -0.9982990026473999
            ],
            "type" : "VEC3"
        },
        {
            "bufferView" : 8,
            "componentType" : 5126,
            "count" : 439,
            "max" : [
                0.36519527435302734,
                0.36519598960876465,
                0.1326654553413391
            ],
            "min" : [
                -0.36519527435302734,
                -0.36519527435302734,
                -0.13266503810882568
            ],
            "type" : "VEC3"
        },
        {
            "bufferView" : 9,
            "componentType" : 5126,
            "count" : 439,
            "max" : [
                0.18107718229293823,
                0.18107664585113525,
                2.9861927032470703e-05
            ],
            "min" : [
                -0.1810770034790039,
                -0.18107765913009644,
                -0.33045363426208496
            ],
            "type" : "VEC3"
        },
        {
            "bufferView" : 10,
            "componentType" : 5126,
            "count" : 439,
            "max" : [
                1.0,
                1.0,
                0.9949964880943298
            ],
            "min" : [
                -1.0,
                -1.0,
                -0.9949967265129089
            ],
            "type" : "VEC3"
        }
    ],
    "asset" : {
        "generator" : "Khronos Blender glTF 2.0 exporter",
        "version" : "2.0"
    },
    "bufferViews" : [
        {
            "buffer" : 0,
            "byteLength" : 4560,
            "byteOffset" : 0,
            "target" : 34963
        },
        {
            "buffer" : 0,
            "byteLength" : 5268,
            "byteOffset" : 4560,
            "target" : 34962
        },
        {
            "buffer" : 0,
            "byteLength" : 5268,
            "byteOffset" : 9828,
            "target" : 34962
        },
        {
            "buffer" : 0,
            "byteLength" : 7024,
            "byteOffset" : 15096,
            "target" : 34962
        },
        {
            "buffer" : 0,
            "byteLength" : 3512,
            "byteOffset" : 22120,
            "target" : 34962
        },
        {
            "buffer" : 0,
            "byteLength" : 5268,
            "byteOffset" : 25632
        },
        {
            "buffer" : 0,
            "byteLength" : 5268,
            "byteOffset" : 30900
        },
        {
            "buffer" : 0,
            "byteLength" : 5268,
            "byteOffset" : 36168
        },
        {
            "buffer" : 0,
            "byteLength" : 5268,
            "byteOffset" : 41436
        },
        {
            "buffer" : 0,
            "byteLength" : 5268,
            "byteOffset" : 46704
        },
        {
            "buffer" : 0,
            "byteLength" : 5268,
            "byteOffset" : 51972
        }
    ],
    "buffers" : [
        {
            "byteLength" : 57240,
            "uri" : "data:application/octet-stream;base64,"
        }
    ],
    "materials" : [
        {
            "name" : "lambert1",
            "pbrMetallicRoughness" : {
                "baseColorFactor" : [
                    0.2522446669972638,
                    0.1256000060677529,
                    0.4000000059604645,
                    1.0
                ],
                "metallicFactor" : 0.0
            }
        }
    ],
    "meshes" : [
        {
            "extras" : {
                "targetNames" : [
                    "pSphere2",
                    "pSphere3"
                ]
            },
            "name" : "Untitled",
            "primitives" : [
                {
                    "attributes" : {
                        "NORMAL" : 2,
                        "POSITION" : 1,
                        "TANGENT" : 3,
                        "TEXCOORD_0" : 4
                    },
                    "indices" : 0,
                    "material" : 0,
                    "targets" : [
                        {
                            "NORMAL" : 6,
                            "POSITION" : 5,
                            "TANGENT" : 7
                        },
                        {
                            "NORMAL" : 9,
                            "POSITION" : 8,
                            "TANGENT" : 10
                        }
                    ]
                }
            ],
            "weights" : [
                0.0,
                0.0
            ]
        }
    ],
    "nodes" : [
        {
            "name" : "Camera",
            "rotation" : [
                0.483536034822464,
                0.33687159419059753,
                -0.20870360732078552,
                0.7804827094078064
            ],
            "translation" : [
                7.481131553649902,
                5.34366512298584,
                6.5076398849487305
            ]
        },
        {
            "name" : "Lamp",
            "rotation" : [
                0.16907575726509094,
                0.7558802962303162,
                -0.27217137813568115,
                0.570947527885437
            ],
            "scale" : [
                1.0,
                1.0,
                0.9999999403953552
            ],
            "translation" : [
                4.076245307922363,
                5.903861999511719,
                -1.0054539442062378
            ]
        },
        {
            "mesh" : 0,
            "name" : "pSphere1",
            "rotation" : [
                0.7071068286895752,
                0.0,
                -0.0,
                0.7071067094802856
            ],
            "scale" : [
                0.009999999776482582,
                0.009999999776482582,
                0.009999999776482582
            ],
            "translation" : [
                -0.05075614154338837,
                0.010349716059863567,
                -0.0
            ]
        }
    ],
    "scene" : 0,
    "scenes" : [
        {
            "name" : "Scene",
            "nodes" : [
                2,
                1,
                0
            ]
        }
    ]
}
