{"asset":{"generator":"Modov11.2","version":"2.0"},"scene":0,"scenes":[{"nodes":[0,1,2]}],"nodes":[{"name":"Cow","mesh":0},{"name":"Camera","matrix":[1.0,0.0,0.0,0.0,0.0,0.9961947202682495,-0.08715574443340302,0.0,0.0,0.08715574443340302,0.9961947202682495,0.0,0.0,0.75,4.0,1.0],"camera":0},{"name":"Texture Group"}],"meshes":[{"primitives":[{"indices":1,"mode":4,"material":1,"attributes":{"POSITION":0,"NORMAL":2,"COLOR_0":3,"TEXCOORD_0":4}}]}],"buffers":[{"byteLength":118848,"uri":"cow.bin"}],"bufferViews":[{"buffer":0,"byteLength":23796},{"buffer":0,"byteLength":23664,"byteOffset":23796},{"buffer":0,"byteLength":23796,"byteOffset":47460},{"buffer":0,"byteLength":31728,"byteOffset":71256},{"buffer":0,"byteLength":15864,"byteOffset":102984}],"accessors":[{"bufferView":0,"type":"VEC3","componentType":5126,"count":1983,"min":[-0.013201387599110604,-0.00014575205568689853,-0.04448482021689415],"max":[0.02673150971531868,0.06433150172233582,0.05512770637869835]},{"bufferView":1,"type":"SCALAR","componentType":5125,"count":5916},{"bufferView":2,"type":"VEC3","componentType":5126,"count":1983},{"bufferView":3,"type":"VEC4","componentType":5126,"count":1983},{"bufferView":4,"type":"VEC2","componentType":5126,"count":1983}],"materials":[{"pbrMetallicRoughness":{"metallicFactor":0.5,"roughnessFactor":0.5}},{"name":"Cow","emissiveFactor":[0.0,0.0,0.0],"alphaMode":"OPAQUE","doubleSided":false,"pbrMetallicRoughness":{"baseColorFactor":[1.0,1.0,1.0,1.0],"metallicFactor":1.0,"roughnessFactor":1.0,"baseColorTexture":{"index":0,"texCoord":0}}}],"textures":[{"name":"cow1_color1 ","sampler":0,"source":0}],"images":[{"mimeType":"image/png","uri":"cow1_color1.png"}],"samplers":[{}],"cameras":[{"name":"Camera","type":"perspective","perspective":{"znear":0.01,"yfov":0.8726}}]}